<mxfile host="Electron" modified="2024-03-30T17:43:50.176Z" agent="Mozilla/5.0 (Windows NT 10.0; Win64; x64) AppleWebKit/537.36 (KHTML, like Gecko) draw.io/22.0.0 Chrome/114.0.5735.289 Electron/25.8.3 Safari/537.36" etag="XrUx6-8279tOkuMpPXuH" version="22.0.0" type="device">
  <diagram name="Page-1" id="XDburYbzT6nu1ayZqsy0">
    <mxGraphModel dx="3428" dy="1016" grid="1" gridSize="10" guides="1" tooltips="1" connect="1" arrows="1" fold="1" page="1" pageScale="1" pageWidth="850" pageHeight="1100" math="0" shadow="0">
      <root>
        <mxCell id="0" />
        <mxCell id="1" parent="0" />
        <mxCell id="9VJYw1-1OAw8B056GKT0-113" value="" style="rounded=0;whiteSpace=wrap;html=1;" vertex="1" parent="1">
          <mxGeometry x="-662.5" y="785" width="200" height="90" as="geometry" />
        </mxCell>
        <mxCell id="9VJYw1-1OAw8B056GKT0-2" value="" style="whiteSpace=wrap;html=1;aspect=fixed;strokeWidth=3;" vertex="1" parent="1">
          <mxGeometry x="-1610" y="150" width="360" height="360" as="geometry" />
        </mxCell>
        <mxCell id="9VJYw1-1OAw8B056GKT0-3" value="&amp;nbsp; &amp;nbsp;&lt;font style=&quot;font-size: 16px;&quot;&gt;Teacher&lt;/font&gt;&lt;font style=&quot;font-size: 16px;&quot;&gt;&amp;nbsp;Dashboard&lt;/font&gt;" style="rounded=0;whiteSpace=wrap;html=1;strokeWidth=3;align=left;" vertex="1" parent="1">
          <mxGeometry x="-1610" y="150" width="360" height="40" as="geometry" />
        </mxCell>
        <mxCell id="9VJYw1-1OAw8B056GKT0-4" value="" style="rounded=0;whiteSpace=wrap;html=1;strokeWidth=2;" vertex="1" parent="1">
          <mxGeometry x="-1609" y="191" width="159" height="319" as="geometry" />
        </mxCell>
        <mxCell id="9VJYw1-1OAw8B056GKT0-5" value="" style="rounded=1;whiteSpace=wrap;html=1;" vertex="1" parent="1">
          <mxGeometry x="-1594.25" y="210" width="129.5" height="30" as="geometry" />
        </mxCell>
        <mxCell id="9VJYw1-1OAw8B056GKT0-6" value="" style="rounded=1;whiteSpace=wrap;html=1;" vertex="1" parent="1">
          <mxGeometry x="-1594.25" y="260" width="129.5" height="30" as="geometry" />
        </mxCell>
        <mxCell id="9VJYw1-1OAw8B056GKT0-7" value="Create Live session" style="rounded=1;whiteSpace=wrap;html=1;" vertex="1" parent="1">
          <mxGeometry x="-1596.25" y="320" width="134.25" height="30" as="geometry" />
        </mxCell>
        <mxCell id="9VJYw1-1OAw8B056GKT0-8" value="" style="rounded=0;whiteSpace=wrap;html=1;" vertex="1" parent="1">
          <mxGeometry x="-1581.62" y="224" width="104.25" height="1" as="geometry" />
        </mxCell>
        <mxCell id="9VJYw1-1OAw8B056GKT0-9" value="" style="rounded=0;whiteSpace=wrap;html=1;" vertex="1" parent="1">
          <mxGeometry x="-1581.62" y="274" width="104.25" height="1" as="geometry" />
        </mxCell>
        <mxCell id="9VJYw1-1OAw8B056GKT0-10" value="" style="rounded=1;whiteSpace=wrap;html=1;" vertex="1" parent="1">
          <mxGeometry x="-1594.25" y="260" width="129.5" height="30" as="geometry" />
        </mxCell>
        <mxCell id="9VJYw1-1OAw8B056GKT0-11" value="" style="rounded=0;whiteSpace=wrap;html=1;" vertex="1" parent="1">
          <mxGeometry x="-1581.63" y="273" width="104.25" height="1" as="geometry" />
        </mxCell>
        <mxCell id="9VJYw1-1OAw8B056GKT0-12" value="" style="whiteSpace=wrap;html=1;aspect=fixed;" vertex="1" parent="1">
          <mxGeometry x="-1430" y="240" width="150" height="150" as="geometry" />
        </mxCell>
        <mxCell id="9VJYw1-1OAw8B056GKT0-13" value="" style="endArrow=none;html=1;rounded=0;entryX=1;entryY=0;entryDx=0;entryDy=0;exitX=0;exitY=1;exitDx=0;exitDy=0;" edge="1" parent="1" source="9VJYw1-1OAw8B056GKT0-12" target="9VJYw1-1OAw8B056GKT0-12">
          <mxGeometry width="50" height="50" relative="1" as="geometry">
            <mxPoint x="-1420" y="330" as="sourcePoint" />
            <mxPoint x="-1370" y="280" as="targetPoint" />
          </mxGeometry>
        </mxCell>
        <mxCell id="9VJYw1-1OAw8B056GKT0-14" value="" style="endArrow=none;html=1;rounded=0;entryX=0;entryY=0;entryDx=0;entryDy=0;exitX=1;exitY=1;exitDx=0;exitDy=0;" edge="1" parent="1" source="9VJYw1-1OAw8B056GKT0-12" target="9VJYw1-1OAw8B056GKT0-12">
          <mxGeometry width="50" height="50" relative="1" as="geometry">
            <mxPoint x="-1420" y="330" as="sourcePoint" />
            <mxPoint x="-1370" y="280" as="targetPoint" />
          </mxGeometry>
        </mxCell>
        <mxCell id="9VJYw1-1OAw8B056GKT0-30" value="" style="whiteSpace=wrap;html=1;aspect=fixed;strokeWidth=3;" vertex="1" parent="1">
          <mxGeometry x="-1180" y="310" width="300" height="300" as="geometry" />
        </mxCell>
        <mxCell id="9VJYw1-1OAw8B056GKT0-31" value="&lt;font style=&quot;font-size: 19px;&quot;&gt;&amp;nbsp; &amp;nbsp; &amp;nbsp; &amp;nbsp; &amp;nbsp; &amp;nbsp; &amp;nbsp;Create a live session&lt;/font&gt;" style="rounded=0;whiteSpace=wrap;html=1;align=left;" vertex="1" parent="1">
          <mxGeometry x="-1180" y="310" width="300" height="50" as="geometry" />
        </mxCell>
        <mxCell id="9VJYw1-1OAw8B056GKT0-32" value="&lt;font style=&quot;font-size: 14px;&quot;&gt;Session Title :&lt;/font&gt;" style="rounded=0;whiteSpace=wrap;html=1;" vertex="1" parent="1">
          <mxGeometry x="-1170" y="380" width="100" height="30" as="geometry" />
        </mxCell>
        <mxCell id="9VJYw1-1OAw8B056GKT0-33" value="" style="rounded=0;whiteSpace=wrap;html=1;" vertex="1" parent="1">
          <mxGeometry x="-1060" y="380" width="160" height="30" as="geometry" />
        </mxCell>
        <mxCell id="9VJYw1-1OAw8B056GKT0-36" value="&lt;font style=&quot;font-size: 14px;&quot;&gt;Date&lt;/font&gt;" style="rounded=0;whiteSpace=wrap;html=1;" vertex="1" parent="1">
          <mxGeometry x="-1170" y="430" width="100" height="30" as="geometry" />
        </mxCell>
        <mxCell id="9VJYw1-1OAw8B056GKT0-37" value="&lt;font style=&quot;font-size: 14px;&quot;&gt;End Time:&lt;/font&gt;" style="rounded=0;whiteSpace=wrap;html=1;" vertex="1" parent="1">
          <mxGeometry x="-1170" y="480" width="100" height="30" as="geometry" />
        </mxCell>
        <mxCell id="9VJYw1-1OAw8B056GKT0-38" value="" style="rounded=0;whiteSpace=wrap;html=1;" vertex="1" parent="1">
          <mxGeometry x="-1060" y="430" width="160" height="30" as="geometry" />
        </mxCell>
        <mxCell id="9VJYw1-1OAw8B056GKT0-39" value="" style="rounded=0;whiteSpace=wrap;html=1;" vertex="1" parent="1">
          <mxGeometry x="-1060" y="480" width="160" height="30" as="geometry" />
        </mxCell>
        <mxCell id="9VJYw1-1OAw8B056GKT0-48" style="edgeStyle=orthogonalEdgeStyle;rounded=0;orthogonalLoop=1;jettySize=auto;html=1;" edge="1" parent="1" source="9VJYw1-1OAw8B056GKT0-40" target="9VJYw1-1OAw8B056GKT0-47">
          <mxGeometry relative="1" as="geometry">
            <Array as="points">
              <mxPoint x="-810" y="560" />
              <mxPoint x="-810" y="410" />
            </Array>
          </mxGeometry>
        </mxCell>
        <mxCell id="9VJYw1-1OAw8B056GKT0-40" value="Start" style="rounded=1;whiteSpace=wrap;html=1;" vertex="1" parent="1">
          <mxGeometry x="-1090" y="540" width="120" height="40" as="geometry" />
        </mxCell>
        <mxCell id="9VJYw1-1OAw8B056GKT0-41" value="" style="endArrow=classic;html=1;rounded=0;exitX=0.5;exitY=1;exitDx=0;exitDy=0;entryX=-0.002;entryY=0.527;entryDx=0;entryDy=0;entryPerimeter=0;" edge="1" parent="1" source="9VJYw1-1OAw8B056GKT0-7" target="9VJYw1-1OAw8B056GKT0-30">
          <mxGeometry width="50" height="50" relative="1" as="geometry">
            <mxPoint x="-1250" y="500" as="sourcePoint" />
            <mxPoint x="-1200" y="450" as="targetPoint" />
            <Array as="points">
              <mxPoint x="-1529" y="470" />
            </Array>
          </mxGeometry>
        </mxCell>
        <mxCell id="9VJYw1-1OAw8B056GKT0-119" style="edgeStyle=orthogonalEdgeStyle;rounded=0;orthogonalLoop=1;jettySize=auto;html=1;entryX=1;entryY=0.5;entryDx=0;entryDy=0;" edge="1" parent="1" source="9VJYw1-1OAw8B056GKT0-47" target="9VJYw1-1OAw8B056GKT0-77">
          <mxGeometry relative="1" as="geometry">
            <Array as="points">
              <mxPoint x="-580" y="705" />
            </Array>
          </mxGeometry>
        </mxCell>
        <mxCell id="9VJYw1-1OAw8B056GKT0-47" value="" style="rounded=0;whiteSpace=wrap;html=1;strokeWidth=4;" vertex="1" parent="1">
          <mxGeometry x="-760" y="270" width="360" height="280" as="geometry" />
        </mxCell>
        <mxCell id="9VJYw1-1OAw8B056GKT0-49" value="&lt;span style=&quot;font-size: 16px;&quot;&gt;&amp;nbsp; Session Title&lt;/span&gt;" style="rounded=0;whiteSpace=wrap;html=1;align=left;" vertex="1" parent="1">
          <mxGeometry x="-760" y="270" width="360" height="50" as="geometry" />
        </mxCell>
        <mxCell id="9VJYw1-1OAw8B056GKT0-50" value="" style="rounded=0;whiteSpace=wrap;html=1;" vertex="1" parent="1">
          <mxGeometry x="-760" y="320.5" width="360" height="29.5" as="geometry" />
        </mxCell>
        <mxCell id="9VJYw1-1OAw8B056GKT0-51" value="" style="rounded=0;whiteSpace=wrap;html=1;" vertex="1" parent="1">
          <mxGeometry x="-760" y="350" width="360" height="29.5" as="geometry" />
        </mxCell>
        <mxCell id="9VJYw1-1OAw8B056GKT0-52" value="" style="rounded=0;whiteSpace=wrap;html=1;" vertex="1" parent="1">
          <mxGeometry x="-760" y="379.5" width="360" height="29.5" as="geometry" />
        </mxCell>
        <mxCell id="9VJYw1-1OAw8B056GKT0-53" value="" style="rounded=0;whiteSpace=wrap;html=1;" vertex="1" parent="1">
          <mxGeometry x="-760" y="410" width="360" height="29.5" as="geometry" />
        </mxCell>
        <mxCell id="9VJYw1-1OAw8B056GKT0-54" value="" style="rounded=0;whiteSpace=wrap;html=1;" vertex="1" parent="1">
          <mxGeometry x="-760" y="439.5" width="360" height="29.5" as="geometry" />
        </mxCell>
        <mxCell id="9VJYw1-1OAw8B056GKT0-55" value="" style="rounded=0;whiteSpace=wrap;html=1;" vertex="1" parent="1">
          <mxGeometry x="-760" y="469" width="360" height="29.5" as="geometry" />
        </mxCell>
        <mxCell id="9VJYw1-1OAw8B056GKT0-56" value="" style="rounded=0;whiteSpace=wrap;html=1;rotation=-90;" vertex="1" parent="1">
          <mxGeometry x="-497" y="402" width="178" height="16" as="geometry" />
        </mxCell>
        <mxCell id="9VJYw1-1OAw8B056GKT0-57" value="" style="rounded=0;whiteSpace=wrap;html=1;rotation=-90;" vertex="1" parent="1">
          <mxGeometry x="-428" y="345.5" width="40" height="10" as="geometry" />
        </mxCell>
        <mxCell id="9VJYw1-1OAw8B056GKT0-58" value="" style="rounded=0;whiteSpace=wrap;html=1;rotation=-90;" vertex="1" parent="1">
          <mxGeometry x="-710" y="409" width="177.5" height="1" as="geometry" />
        </mxCell>
        <mxCell id="9VJYw1-1OAw8B056GKT0-61" value="" style="rounded=0;whiteSpace=wrap;html=1;rotation=-90;" vertex="1" parent="1">
          <mxGeometry x="-600" y="409" width="177.5" height="1" as="geometry" />
        </mxCell>
        <mxCell id="9VJYw1-1OAw8B056GKT0-62" value="&lt;font style=&quot;font-size: 14px;&quot;&gt;Name&lt;/font&gt;" style="text;html=1;strokeColor=none;fillColor=none;align=center;verticalAlign=middle;whiteSpace=wrap;rounded=0;" vertex="1" parent="1">
          <mxGeometry x="-723" y="321.5" width="60" height="30" as="geometry" />
        </mxCell>
        <mxCell id="9VJYw1-1OAw8B056GKT0-63" value="&lt;font style=&quot;font-size: 14px;&quot;&gt;ID&lt;/font&gt;" style="text;html=1;strokeColor=none;fillColor=none;align=center;verticalAlign=middle;whiteSpace=wrap;rounded=0;" vertex="1" parent="1">
          <mxGeometry x="-592.5" y="321.5" width="60" height="30" as="geometry" />
        </mxCell>
        <mxCell id="9VJYw1-1OAw8B056GKT0-64" value="&lt;font style=&quot;font-size: 14px;&quot;&gt;Join Time&lt;/font&gt;" style="text;html=1;strokeColor=none;fillColor=none;align=center;verticalAlign=middle;whiteSpace=wrap;rounded=0;" vertex="1" parent="1">
          <mxGeometry x="-499" y="320" width="73" height="30" as="geometry" />
        </mxCell>
        <mxCell id="9VJYw1-1OAw8B056GKT0-65" value="End Session" style="rounded=1;whiteSpace=wrap;html=1;" vertex="1" parent="1">
          <mxGeometry x="-624.5" y="510" width="89" height="30" as="geometry" />
        </mxCell>
        <mxCell id="9VJYw1-1OAw8B056GKT0-66" value="" style="ellipse;whiteSpace=wrap;html=1;aspect=fixed;" vertex="1" parent="1">
          <mxGeometry x="-1164" y="316.5" width="35" height="35" as="geometry" />
        </mxCell>
        <mxCell id="9VJYw1-1OAw8B056GKT0-73" value="" style="shape=flexArrow;endArrow=classic;html=1;rounded=0;entryX=0.105;entryY=0.956;entryDx=0;entryDy=0;entryPerimeter=0;" edge="1" parent="1">
          <mxGeometry width="50" height="50" relative="1" as="geometry">
            <mxPoint x="-1133.5" y="335.90999999999997" as="sourcePoint" />
            <mxPoint x="-1163" y="334.59000000000003" as="targetPoint" />
          </mxGeometry>
        </mxCell>
        <mxCell id="9VJYw1-1OAw8B056GKT0-75" value="" style="endArrow=classic;html=1;rounded=0;exitX=0;exitY=0.5;exitDx=0;exitDy=0;entryX=1;entryY=0.375;entryDx=0;entryDy=0;entryPerimeter=0;" edge="1" parent="1" source="9VJYw1-1OAw8B056GKT0-66" target="9VJYw1-1OAw8B056GKT0-2">
          <mxGeometry width="50" height="50" relative="1" as="geometry">
            <mxPoint x="-1230" y="370" as="sourcePoint" />
            <mxPoint x="-1180" y="320" as="targetPoint" />
            <Array as="points">
              <mxPoint x="-1220" y="334" />
              <mxPoint x="-1220" y="285" />
            </Array>
          </mxGeometry>
        </mxCell>
        <mxCell id="9VJYw1-1OAw8B056GKT0-116" style="edgeStyle=orthogonalEdgeStyle;rounded=0;orthogonalLoop=1;jettySize=auto;html=1;entryX=0.5;entryY=1;entryDx=0;entryDy=0;" edge="1" parent="1" source="9VJYw1-1OAw8B056GKT0-77" target="9VJYw1-1OAw8B056GKT0-2">
          <mxGeometry relative="1" as="geometry" />
        </mxCell>
        <mxCell id="9VJYw1-1OAw8B056GKT0-77" value="" style="rounded=0;whiteSpace=wrap;html=1;" vertex="1" parent="1">
          <mxGeometry x="-1370" y="660" width="200" height="90" as="geometry" />
        </mxCell>
        <mxCell id="9VJYw1-1OAw8B056GKT0-78" value="Ok" style="rounded=1;whiteSpace=wrap;html=1;" vertex="1" parent="1">
          <mxGeometry x="-1300" y="720" width="64.5" height="20" as="geometry" />
        </mxCell>
        <mxCell id="9VJYw1-1OAw8B056GKT0-79" value="&#xa;&lt;span style=&quot;color: rgb(0, 0, 0); font-family: Helvetica; font-size: 12px; font-style: normal; font-variant-ligatures: normal; font-variant-caps: normal; font-weight: 400; letter-spacing: normal; orphans: 2; text-align: center; text-indent: 0px; text-transform: none; widows: 2; word-spacing: 0px; -webkit-text-stroke-width: 0px; background-color: rgb(251, 251, 251); text-decoration-thickness: initial; text-decoration-style: initial; text-decoration-color: initial; float: none; display: inline !important;&quot;&gt;Session ended!!&lt;/span&gt;&#xa;&#xa;" style="text;html=1;strokeColor=none;fillColor=none;align=center;verticalAlign=middle;whiteSpace=wrap;rounded=0;" vertex="1" parent="1">
          <mxGeometry x="-1310" y="690" width="90" height="30" as="geometry" />
        </mxCell>
        <mxCell id="9VJYw1-1OAw8B056GKT0-81" value="" style="whiteSpace=wrap;html=1;aspect=fixed;strokeWidth=3;" vertex="1" parent="1">
          <mxGeometry x="-1609" y="810" width="360" height="360" as="geometry" />
        </mxCell>
        <mxCell id="9VJYw1-1OAw8B056GKT0-82" value="&amp;nbsp; &amp;nbsp;&lt;font style=&quot;font-size: 16px;&quot;&gt;Student Dashboard&lt;/font&gt;" style="rounded=0;whiteSpace=wrap;html=1;strokeWidth=3;align=left;" vertex="1" parent="1">
          <mxGeometry x="-1609" y="810" width="360" height="40" as="geometry" />
        </mxCell>
        <mxCell id="9VJYw1-1OAw8B056GKT0-83" value="" style="rounded=0;whiteSpace=wrap;html=1;strokeWidth=2;" vertex="1" parent="1">
          <mxGeometry x="-1608" y="851" width="159" height="319" as="geometry" />
        </mxCell>
        <mxCell id="9VJYw1-1OAw8B056GKT0-84" value="" style="rounded=1;whiteSpace=wrap;html=1;" vertex="1" parent="1">
          <mxGeometry x="-1593.25" y="870" width="129.5" height="30" as="geometry" />
        </mxCell>
        <mxCell id="9VJYw1-1OAw8B056GKT0-85" value="" style="rounded=1;whiteSpace=wrap;html=1;" vertex="1" parent="1">
          <mxGeometry x="-1593.25" y="920" width="129.5" height="30" as="geometry" />
        </mxCell>
        <mxCell id="9VJYw1-1OAw8B056GKT0-86" value="Live Sessions" style="rounded=1;whiteSpace=wrap;html=1;" vertex="1" parent="1">
          <mxGeometry x="-1595.25" y="980" width="134.25" height="30" as="geometry" />
        </mxCell>
        <mxCell id="9VJYw1-1OAw8B056GKT0-87" value="" style="rounded=0;whiteSpace=wrap;html=1;" vertex="1" parent="1">
          <mxGeometry x="-1580.62" y="884" width="104.25" height="1" as="geometry" />
        </mxCell>
        <mxCell id="9VJYw1-1OAw8B056GKT0-88" value="" style="rounded=0;whiteSpace=wrap;html=1;" vertex="1" parent="1">
          <mxGeometry x="-1580.62" y="934" width="104.25" height="1" as="geometry" />
        </mxCell>
        <mxCell id="9VJYw1-1OAw8B056GKT0-89" value="" style="rounded=1;whiteSpace=wrap;html=1;" vertex="1" parent="1">
          <mxGeometry x="-1593.25" y="920" width="129.5" height="30" as="geometry" />
        </mxCell>
        <mxCell id="9VJYw1-1OAw8B056GKT0-90" value="" style="rounded=0;whiteSpace=wrap;html=1;" vertex="1" parent="1">
          <mxGeometry x="-1580.63" y="933" width="104.25" height="1" as="geometry" />
        </mxCell>
        <mxCell id="9VJYw1-1OAw8B056GKT0-91" value="" style="whiteSpace=wrap;html=1;aspect=fixed;" vertex="1" parent="1">
          <mxGeometry x="-1429" y="900" width="150" height="150" as="geometry" />
        </mxCell>
        <mxCell id="9VJYw1-1OAw8B056GKT0-92" value="" style="endArrow=none;html=1;rounded=0;entryX=1;entryY=0;entryDx=0;entryDy=0;exitX=0;exitY=1;exitDx=0;exitDy=0;" edge="1" parent="1" source="9VJYw1-1OAw8B056GKT0-91" target="9VJYw1-1OAw8B056GKT0-91">
          <mxGeometry width="50" height="50" relative="1" as="geometry">
            <mxPoint x="-1419" y="990" as="sourcePoint" />
            <mxPoint x="-1369" y="940" as="targetPoint" />
          </mxGeometry>
        </mxCell>
        <mxCell id="9VJYw1-1OAw8B056GKT0-93" value="" style="endArrow=none;html=1;rounded=0;entryX=0;entryY=0;entryDx=0;entryDy=0;exitX=1;exitY=1;exitDx=0;exitDy=0;" edge="1" parent="1" source="9VJYw1-1OAw8B056GKT0-91" target="9VJYw1-1OAw8B056GKT0-91">
          <mxGeometry width="50" height="50" relative="1" as="geometry">
            <mxPoint x="-1419" y="990" as="sourcePoint" />
            <mxPoint x="-1369" y="940" as="targetPoint" />
          </mxGeometry>
        </mxCell>
        <mxCell id="9VJYw1-1OAw8B056GKT0-95" value="" style="whiteSpace=wrap;html=1;aspect=fixed;strokeWidth=3;" vertex="1" parent="1">
          <mxGeometry x="-1110" y="870" width="380" height="380" as="geometry" />
        </mxCell>
        <mxCell id="9VJYw1-1OAw8B056GKT0-96" value="&lt;font style=&quot;font-size: 16px;&quot;&gt;&amp;nbsp; Student Dashboard&lt;/font&gt;" style="rounded=0;whiteSpace=wrap;html=1;strokeWidth=3;align=left;" vertex="1" parent="1">
          <mxGeometry x="-1110" y="870" width="380" height="50" as="geometry" />
        </mxCell>
        <mxCell id="9VJYw1-1OAw8B056GKT0-97" value="" style="rounded=0;whiteSpace=wrap;html=1;strokeWidth=2;" vertex="1" parent="1">
          <mxGeometry x="-1110" y="920" width="150" height="330" as="geometry" />
        </mxCell>
        <mxCell id="9VJYw1-1OAw8B056GKT0-98" value="" style="rounded=1;whiteSpace=wrap;html=1;" vertex="1" parent="1">
          <mxGeometry x="-1099.75" y="935" width="129.5" height="30" as="geometry" />
        </mxCell>
        <mxCell id="9VJYw1-1OAw8B056GKT0-99" value="" style="rounded=0;whiteSpace=wrap;html=1;" vertex="1" parent="1">
          <mxGeometry x="-1087.12" y="949" width="104.25" height="1" as="geometry" />
        </mxCell>
        <mxCell id="9VJYw1-1OAw8B056GKT0-100" value="" style="rounded=1;whiteSpace=wrap;html=1;" vertex="1" parent="1">
          <mxGeometry x="-1099.75" y="990" width="129.5" height="30" as="geometry" />
        </mxCell>
        <mxCell id="9VJYw1-1OAw8B056GKT0-101" value="" style="rounded=0;whiteSpace=wrap;html=1;" vertex="1" parent="1">
          <mxGeometry x="-1087.12" y="1004" width="104.25" height="1" as="geometry" />
        </mxCell>
        <mxCell id="9VJYw1-1OAw8B056GKT0-102" value="" style="rounded=0;whiteSpace=wrap;html=1;dashed=1;dashPattern=12 12;" vertex="1" parent="1">
          <mxGeometry x="-1110" y="1040" width="150" height="60" as="geometry" />
        </mxCell>
        <mxCell id="9VJYw1-1OAw8B056GKT0-103" value="Live Sessions" style="rounded=1;whiteSpace=wrap;html=1;" vertex="1" parent="1">
          <mxGeometry x="-1102.13" y="1055" width="134.25" height="30" as="geometry" />
        </mxCell>
        <mxCell id="9VJYw1-1OAw8B056GKT0-104" value="" style="rounded=0;whiteSpace=wrap;html=1;" vertex="1" parent="1">
          <mxGeometry x="-950" y="957.5" width="210" height="102.5" as="geometry" />
        </mxCell>
        <mxCell id="9VJYw1-1OAw8B056GKT0-105" value="A live session has been created by....." style="text;html=1;strokeColor=none;fillColor=none;align=center;verticalAlign=middle;whiteSpace=wrap;rounded=0;fontSize=11;" vertex="1" parent="1">
          <mxGeometry x="-871" y="972" width="105" height="48" as="geometry" />
        </mxCell>
        <mxCell id="9VJYw1-1OAw8B056GKT0-106" value="" style="ellipse;whiteSpace=wrap;html=1;aspect=fixed;" vertex="1" parent="1">
          <mxGeometry x="-940" y="977" width="60" height="60" as="geometry" />
        </mxCell>
        <mxCell id="9VJYw1-1OAw8B056GKT0-107" value="" style="endArrow=none;html=1;rounded=0;entryX=1;entryY=0;entryDx=0;entryDy=0;exitX=0;exitY=1;exitDx=0;exitDy=0;" edge="1" parent="1" source="9VJYw1-1OAw8B056GKT0-106" target="9VJYw1-1OAw8B056GKT0-106">
          <mxGeometry width="50" height="50" relative="1" as="geometry">
            <mxPoint x="-1150" y="1042" as="sourcePoint" />
            <mxPoint x="-1100" y="992" as="targetPoint" />
          </mxGeometry>
        </mxCell>
        <mxCell id="9VJYw1-1OAw8B056GKT0-108" value="" style="endArrow=none;html=1;rounded=0;entryX=0;entryY=0;entryDx=0;entryDy=0;exitX=1;exitY=1;exitDx=0;exitDy=0;" edge="1" parent="1" source="9VJYw1-1OAw8B056GKT0-106" target="9VJYw1-1OAw8B056GKT0-106">
          <mxGeometry width="50" height="50" relative="1" as="geometry">
            <mxPoint x="-1150" y="1042" as="sourcePoint" />
            <mxPoint x="-1100" y="992" as="targetPoint" />
          </mxGeometry>
        </mxCell>
        <mxCell id="9VJYw1-1OAw8B056GKT0-109" value="&lt;font style=&quot;font-size: 14px;&quot;&gt;Join&lt;/font&gt;" style="rounded=1;whiteSpace=wrap;html=1;" vertex="1" parent="1">
          <mxGeometry x="-820" y="1027" width="70" height="23" as="geometry" />
        </mxCell>
        <mxCell id="9VJYw1-1OAw8B056GKT0-111" value="" style="html=1;verticalLabelPosition=bottom;labelBackgroundColor=#ffffff;verticalAlign=top;shadow=0;dashed=0;strokeWidth=2;shape=mxgraph.ios7.misc.loading_circle;" vertex="1" parent="1">
          <mxGeometry x="-582.5" y="796" width="40" height="40" as="geometry" />
        </mxCell>
        <mxCell id="9VJYw1-1OAw8B056GKT0-112" value="Please wait for permission" style="text;html=1;strokeColor=none;fillColor=none;align=center;verticalAlign=middle;whiteSpace=wrap;rounded=0;" vertex="1" parent="1">
          <mxGeometry x="-650" y="842" width="175" height="30" as="geometry" />
        </mxCell>
        <mxCell id="9VJYw1-1OAw8B056GKT0-117" value="" style="endArrow=classic;html=1;rounded=0;exitX=1;exitY=0.5;exitDx=0;exitDy=0;entryX=-0.036;entryY=0.09;entryDx=0;entryDy=0;entryPerimeter=0;" edge="1" parent="1" source="9VJYw1-1OAw8B056GKT0-86" target="9VJYw1-1OAw8B056GKT0-97">
          <mxGeometry width="50" height="50" relative="1" as="geometry">
            <mxPoint x="-1020" y="990" as="sourcePoint" />
            <mxPoint x="-970" y="940" as="targetPoint" />
            <Array as="points">
              <mxPoint x="-1190" y="995" />
              <mxPoint x="-1190" y="950" />
            </Array>
          </mxGeometry>
        </mxCell>
        <mxCell id="9VJYw1-1OAw8B056GKT0-118" value="" style="endArrow=classic;html=1;rounded=0;entryX=0.5;entryY=1;entryDx=0;entryDy=0;" edge="1" parent="1" source="9VJYw1-1OAw8B056GKT0-109" target="9VJYw1-1OAw8B056GKT0-112">
          <mxGeometry width="50" height="50" relative="1" as="geometry">
            <mxPoint x="-1020" y="990" as="sourcePoint" />
            <mxPoint x="-970" y="940" as="targetPoint" />
            <Array as="points">
              <mxPoint x="-562" y="1040" />
            </Array>
          </mxGeometry>
        </mxCell>
        <mxCell id="9VJYw1-1OAw8B056GKT0-120" value="" style="endArrow=classic;html=1;rounded=0;exitX=0.75;exitY=1;exitDx=0;exitDy=0;entryX=0.559;entryY=0.008;entryDx=0;entryDy=0;entryPerimeter=0;" edge="1" parent="1" source="9VJYw1-1OAw8B056GKT0-40" target="9VJYw1-1OAw8B056GKT0-104">
          <mxGeometry width="50" height="50" relative="1" as="geometry">
            <mxPoint x="-1020" y="850" as="sourcePoint" />
            <mxPoint x="-970" y="800" as="targetPoint" />
            <Array as="points">
              <mxPoint x="-1000" y="810" />
              <mxPoint x="-833" y="810" />
            </Array>
          </mxGeometry>
        </mxCell>
        <mxCell id="9VJYw1-1OAw8B056GKT0-121" value="" style="endArrow=classic;html=1;rounded=0;exitX=0.5;exitY=0;exitDx=0;exitDy=0;entryX=0.5;entryY=1;entryDx=0;entryDy=0;" edge="1" parent="1" source="9VJYw1-1OAw8B056GKT0-113" target="9VJYw1-1OAw8B056GKT0-122">
          <mxGeometry width="50" height="50" relative="1" as="geometry">
            <mxPoint x="-850" y="600" as="sourcePoint" />
            <mxPoint x="-300" y="480" as="targetPoint" />
            <Array as="points">
              <mxPoint x="-562" y="620" />
              <mxPoint x="-260" y="620" />
            </Array>
          </mxGeometry>
        </mxCell>
        <mxCell id="9VJYw1-1OAw8B056GKT0-122" value="" style="rounded=0;whiteSpace=wrap;html=1;" vertex="1" parent="1">
          <mxGeometry x="-360" y="380" width="200" height="90" as="geometry" />
        </mxCell>
        <mxCell id="9VJYw1-1OAw8B056GKT0-126" style="edgeStyle=orthogonalEdgeStyle;rounded=0;orthogonalLoop=1;jettySize=auto;html=1;" edge="1" parent="1" source="9VJYw1-1OAw8B056GKT0-123">
          <mxGeometry relative="1" as="geometry">
            <mxPoint x="-330" y="919.9999999999998" as="targetPoint" />
          </mxGeometry>
        </mxCell>
        <mxCell id="9VJYw1-1OAw8B056GKT0-123" value="Allow access" style="rounded=1;whiteSpace=wrap;html=1;" vertex="1" parent="1">
          <mxGeometry x="-292" y="440" width="80" height="20" as="geometry" />
        </mxCell>
        <mxCell id="9VJYw1-1OAw8B056GKT0-124" value="Student ID:#### has asked to join" style="text;html=1;strokeColor=none;fillColor=none;align=center;verticalAlign=middle;whiteSpace=wrap;rounded=0;" vertex="1" parent="1">
          <mxGeometry x="-324" y="394.5" width="130" height="30" as="geometry" />
        </mxCell>
        <mxCell id="9VJYw1-1OAw8B056GKT0-125" value="" style="rounded=0;whiteSpace=wrap;html=1;" vertex="1" parent="1">
          <mxGeometry x="-425" y="920" width="200" height="110" as="geometry" />
        </mxCell>
        <mxCell id="9VJYw1-1OAw8B056GKT0-130" value="" style="html=1;verticalLabelPosition=bottom;labelBackgroundColor=#ffffff;verticalAlign=top;shadow=0;dashed=0;strokeWidth=2;shape=mxgraph.ios7.misc.loading_circle;" vertex="1" parent="1">
          <mxGeometry x="-340" y="942" width="30" height="30" as="geometry" />
        </mxCell>
        <mxCell id="9VJYw1-1OAw8B056GKT0-131" value="Joining Live stream" style="text;html=1;strokeColor=none;fillColor=none;align=center;verticalAlign=middle;whiteSpace=wrap;rounded=0;" vertex="1" parent="1">
          <mxGeometry x="-410" y="989.5" width="160" height="30" as="geometry" />
        </mxCell>
      </root>
    </mxGraphModel>
  </diagram>
</mxfile>
